<svg width="21" height="20" viewBox="0 0 21 20" fill="none" xmlns="http://www.w3.org/2000/svg">
<g clip-path="url(#clip0)">
<path d="M9.69593 20C9.531 19.9678 9.36828 19.926 9.20867 19.8748C9.052 19.8155 9.03633 19.6625 9.02301 19.5163C8.98619 19.1039 8.7739 18.8002 8.37594 18.6344C8.14095 18.538 7.87722 18.5274 7.63458 18.6045C7.39195 18.6816 7.18722 18.8411 7.05908 19.0529C6.90241 19.3048 6.84052 19.3296 6.54832 19.2606L6.31331 19.2051C6.11276 19.1564 6.03834 19.0679 6.02894 18.8676C6.02601 18.6231 5.93225 18.3876 5.76446 18.2032C5.59667 18.0188 5.3658 17.8976 5.11317 17.8613C4.90875 17.8334 4.70028 17.8638 4.51384 17.9488C4.3274 18.0338 4.17128 18.1695 4.06502 18.339C3.88954 18.6089 3.8535 18.6232 3.53232 18.5557L3.49002 18.5482C3.08893 18.4679 3.07718 18.4559 3.01999 18.0712C2.94165 17.5838 2.62282 17.2531 2.14104 17.1631C1.70627 17.0821 1.28951 17.2816 1.02943 17.6963C0.914271 17.8793 0.810082 17.9213 0.587603 17.8658C0.476363 17.8395 0.36434 17.817 0.253101 17.7908C0.0447224 17.7428 -0.028915 17.6228 0.0180876 17.4263C0.257801 16.4494 0.496731 15.4718 0.734878 14.4934C0.986603 13.4671 1.23833 12.4407 1.49005 11.4143C1.72246 10.4644 1.95381 9.51331 2.18413 8.56093C2.39877 7.68504 2.61655 6.81065 2.83041 5.93626C3.06334 4.98638 3.29469 4.035 3.52448 3.08212C3.63102 2.62867 3.74096 2.17548 3.85429 1.72254C3.85983 1.68493 3.87407 1.64899 3.89598 1.61733C3.91789 1.58567 3.94691 1.5591 3.98092 1.53955C4.01493 1.52 4.05307 1.50797 4.09256 1.50434C4.13204 1.50071 4.17188 1.50557 4.20916 1.51856C4.31961 1.54556 4.43085 1.57406 4.54209 1.59805C4.78729 1.6498 4.86719 1.74128 4.87738 1.985C4.88781 2.196 4.96568 2.39884 5.10046 2.56609C5.23525 2.73334 5.42044 2.85693 5.63099 2.92014C5.8563 2.98643 6.09839 2.97808 6.31814 2.89644C6.53789 2.81479 6.72247 2.66463 6.84209 2.47019C7.00346 2.21748 7.06927 2.20323 7.36773 2.25347C7.69127 2.30821 7.87301 2.42595 7.90278 2.7844C7.94273 3.25085 8.30857 3.5778 8.7645 3.65729C9.19927 3.73229 9.62621 3.52981 9.87924 3.12411C9.99205 2.94188 10.0782 2.90364 10.2929 2.94338C10.3963 2.96288 10.4981 2.98688 10.5999 3.01163C10.7887 3.05737 10.8498 3.13761 10.8859 3.32434C10.9196 3.49757 10.9446 3.68204 11.0285 3.83427C11.4147 4.53768 12.4213 4.55343 12.8576 3.87252C13.0214 3.6183 13.0989 3.58905 13.3982 3.66704C13.4851 3.68954 13.5744 3.70529 13.6606 3.73229C13.739 3.754 13.8055 3.80415 13.8459 3.87208C13.8863 3.94001 13.8974 4.02035 13.8768 4.09599C13.5567 5.40733 13.236 6.71841 12.9148 8.02925C12.6088 9.28659 12.3028 10.5444 11.9967 11.8028C11.7092 12.9809 11.417 14.1575 11.1279 15.3348C10.8219 16.5847 10.5167 17.8345 10.2122 19.0844C10.1566 19.3093 10.1017 19.5343 10.0438 19.7638C10.0245 19.8363 9.97896 19.8999 9.91523 19.9431C9.85151 19.9864 9.77377 20.0066 9.69593 20ZM10.7527 7.34683C11.0762 7.34683 11.2893 7.15636 11.3254 6.89689C11.3381 6.77034 11.3018 6.64372 11.2234 6.54112C11.1449 6.43852 11.0298 6.3671 10.9 6.34046C10.3689 6.21373 9.83616 6.09074 9.30346 5.96551C8.03439 5.67004 6.76558 5.37433 5.49703 5.07837C5.19386 5.00788 4.91498 5.14736 4.84056 5.41133C4.75752 5.70454 4.90715 5.97376 5.21501 6.0495C5.8707 6.21073 6.52874 6.36296 7.18599 6.51669C8.15738 6.74566 9.12955 6.97338 10.1025 7.19985C10.3383 7.2561 10.578 7.30709 10.7527 7.34683ZM8.51617 16.4552C8.835 16.4604 9.05435 16.2737 9.09352 16.0157C9.10859 15.892 9.07601 15.7672 9.00189 15.6648C8.92777 15.5624 8.81719 15.4893 8.69086 15.4593C7.85526 15.2593 7.0173 15.0631 6.177 14.8706C5.20483 14.6457 4.23187 14.4207 3.26049 14.189C3.1916 14.1654 3.11834 14.1557 3.04535 14.1606C2.97235 14.1654 2.90121 14.1848 2.83642 14.2173C2.77163 14.2499 2.7146 14.2949 2.66894 14.3497C2.62329 14.4044 2.58999 14.4676 2.57117 14.5353C2.55235 14.603 2.54842 14.6737 2.55961 14.7429C2.5708 14.8122 2.59687 14.8784 2.63619 14.9375C2.6755 14.9966 2.7272 15.0472 2.788 15.0861C2.84881 15.1251 2.9174 15.1516 2.98944 15.1639C3.49707 15.2868 4.00574 15.4073 4.51546 15.5253C5.65449 15.7923 6.79352 16.0582 7.93255 16.3232C8.14955 16.3742 8.35871 16.4207 8.51617 16.4552Z" fill="#FFC300"/>
<path d="M11.3817 17.4121C11.4342 17.1968 11.4922 16.9546 11.5517 16.7117L12.1447 14.2985C12.3395 13.5036 12.5343 12.7084 12.7291 11.913C12.9265 11.1086 13.1234 10.3042 13.3198 9.49981C13.5141 8.70941 13.7086 7.91876 13.9034 7.12786C14.1013 6.31946 14.298 5.51056 14.4933 4.70116C14.5332 4.53693 14.5857 4.37345 14.6084 4.20698C14.6868 3.62205 14.3311 3.14436 13.7295 3.01462C13.6417 2.99513 13.5532 2.97413 13.4655 2.95313C12.9696 2.83315 12.5411 3.01163 12.2716 3.43607C12.218 3.52578 12.1356 3.59653 12.0366 3.6378C11.822 3.71279 11.6285 3.56281 11.6151 3.33783C11.5956 3.00263 11.4812 2.70866 11.1906 2.50694C11.0724 2.43072 10.943 2.37183 10.8067 2.33221C10.7158 2.30296 10.6876 2.27747 10.7284 2.19123C11.0817 1.51631 11.4334 0.834648 11.7859 0.158232C11.8705 -0.00299765 11.9974 -0.0374933 12.1674 0.0412469C12.2834 0.0944902 12.3977 0.150733 12.5121 0.207726C12.7064 0.302964 12.7581 0.400452 12.7205 0.608176C12.684 0.772043 12.6889 0.941868 12.7347 1.10358C12.7804 1.26529 12.8658 1.41423 12.9837 1.53806C13.0765 1.63844 13.1895 1.71979 13.3161 1.77719C13.4426 1.83459 13.5799 1.86686 13.7198 1.87205C13.8597 1.87723 13.9993 1.85523 14.1301 1.80737C14.2608 1.7595 14.3801 1.68677 14.4807 1.59355C14.5191 1.55906 14.5536 1.51856 14.592 1.48707C14.6384 1.43691 14.7016 1.40373 14.7708 1.3932C14.8399 1.38267 14.9107 1.39544 14.9711 1.42932L15.2367 1.56356C15.4717 1.68054 15.5179 1.76303 15.4717 2.0135C15.4406 2.16432 15.4456 2.31993 15.4863 2.46864C15.527 2.61736 15.6023 2.75531 15.7067 2.87214C15.7992 2.98195 15.9151 3.07159 16.0467 3.13506C16.1782 3.19854 16.3225 3.23438 16.4697 3.2402C16.6169 3.24603 16.7637 3.22169 16.9003 3.16882C17.0369 3.11595 17.1601 3.03577 17.2617 2.93363C17.4858 2.71841 17.543 2.70866 17.8226 2.8474L17.8352 2.85264C18.1532 2.96063 18.277 3.14361 18.219 3.49007C18.1454 3.93026 18.4305 4.34571 18.841 4.51969C19.2515 4.69366 19.7168 4.60068 20.0568 4.26472C20.2205 4.10274 20.3185 4.08624 20.5268 4.18973C20.6162 4.23322 20.7047 4.27747 20.7932 4.32246C20.9961 4.42595 21.0509 4.58043 20.9499 4.7784C20.2793 6.07824 19.6077 7.37808 18.935 8.67792C17.1458 12.135 15.3563 15.5915 13.5665 19.0476C13.4271 19.3161 13.2978 19.3581 13.0182 19.2208L12.8521 19.1414C12.5818 19.0056 12.5544 18.9561 12.5912 18.6637C12.6531 18.174 12.4416 17.7458 12.0092 17.5598C11.822 17.4766 11.6026 17.4608 11.3817 17.4121Z" fill="#FFC300"/>
</g>
<defs>
<clipPath id="clip0">
<rect width="21" height="20" fill="white"/>
</clipPath>
</defs>
</svg>
